<svg xmlns="http://www.w3.org/2000/svg" xmlns:xlink="http://www.w3.org/1999/xlink" width="384" height="64" viewBox="0 0 384 64"><svg width="64" height="64" viewBox="0 0 64 64"><path fill="#FFF" d="M27.242 26.602h-3.156v5.385h3.156V48h6.462V31.984h4.352s.398-2.582.598-5.4h-4.922v-3.688c0-.553.71-1.296 1.4-1.296h3.526V16h-4.783c-6.795 0-6.633 5.395-6.633 6.198v4.404z"/><path fill="rgba(255, 255, 255, 0.6)" d="M32 64C14.356 64 0 49.644 0 32S14.356 0 32 0s32 14.356 32 32-14.356 32-32 32zm0-60.953C16.036 3.047 3.047 16.037 3.047 32S16.037 60.953 32 60.953 60.953 47.963 60.953 32 47.963 3.047 32 3.047z"/></svg><svg width="64" height="64" viewBox="0 0 64 64" x="80"><path fill="#FFF" d="M27.242 22.2c0-.803-.164-6.2 6.633-6.2h4.783v5.602h-3.526c-.688 0-1.4.743-1.4 1.296v3.69h4.923c-.2 2.817-.598 5.398-.598 5.398h-4.352V48h-6.462V31.986h-3.156V26.6h3.156v-4.4zM64 32C64 14.356 49.644 0 32 0S0 14.356 0 32s14.356 32 32 32 32-14.356 32-32z"/></svg><svg width="64" height="64" viewBox="0 0 64 64" x="160"><path fill="#FFF" d="M47.644 22.16c-1.18.514-2.44.86-3.77 1.018a6.513 6.513 0 0 0 2.888-3.567 13.326 13.326 0 0 1-4.17 1.565A6.615 6.615 0 0 0 37.8 19.14c-3.626 0-6.566 2.886-6.566 6.447 0 .504.058.997.17 1.47a18.753 18.753 0 0 1-13.534-6.738c-.565.95-.89 2.058-.89 3.24 0 2.24 1.16 4.21 2.92 5.37a6.667 6.667 0 0 1-2.973-.808c-.002.026-.002.055-.002.08 0 3.128 2.262 5.733 5.27 6.324a6.715 6.715 0 0 1-2.965.11c.837 2.56 3.26 4.425 6.135 4.478a13.323 13.323 0 0 1-8.153 2.76c-.53 0-1.054-.03-1.567-.09a18.842 18.842 0 0 0 10.065 2.897c12.08 0 18.68-9.824 18.68-18.342 0-.283-.005-.56-.02-.837a13.25 13.25 0 0 0 3.273-3.34z"/><path fill="rgba(255, 255, 255, 0.6)" d="M32 64C14.356 64 0 49.644 0 32S14.356 0 32 0s32 14.356 32 32-14.356 32-32 32zm0-60.953C16.036 3.047 3.047 16.037 3.047 32S16.037 60.953 32 60.953 60.953 47.963 60.953 32 47.963 3.047 32 3.047z"/></svg><svg width="64" height="64" viewBox="0 0 64 64" x="240"><path fill="#FFF" d="M44.37 25.5c.017.276.02.553.02.837 0 8.518-6.602 18.343-18.68 18.343-3.706 0-7.16-1.068-10.064-2.896.514.06 1.036.09 1.567.09a13.33 13.33 0 0 0 8.153-2.76c-2.874-.053-5.298-1.918-6.135-4.478a6.81 6.81 0 0 0 2.965-.11c-3.007-.593-5.27-3.2-5.27-6.324 0-.026 0-.053.003-.08.885.48 1.898.772 2.974.806-1.76-1.16-2.922-3.13-2.922-5.368 0-1.183.326-2.29.89-3.242a18.75 18.75 0 0 0 13.535 6.737 6.37 6.37 0 0 1-.17-1.47c0-3.56 2.94-6.446 6.565-6.446 1.89 0 3.596.783 4.794 2.034 1.494-.29 2.9-.826 4.17-1.564a6.506 6.506 0 0 1-2.89 3.567 13.3 13.3 0 0 0 3.77-1.018 13.267 13.267 0 0 1-3.272 3.34zM64 32C64 14.356 49.644 0 32 0S0 14.356 0 32s14.356 32 32 32 32-14.356 32-32z"/></svg></svg>